<svg width="385" height="361" viewBox="0 0 385 361" fill="none" xmlns="http://www.w3.org/2000/svg">
<path d="M55.4601 101.295L57.077 104.571L60.6921 105.097L58.076 107.647L58.6941 111.248L55.4601 109.548L52.2261 111.248L52.8441 107.647L50.2271 105.097L53.843 104.571L55.4601 101.295Z" fill="#EBEBEB"/>
<path d="M379.111 255.531L380.728 258.807L384.343 259.333L381.727 261.883L382.345 265.484L379.111 263.784L375.877 265.484L376.494 261.883L373.878 259.333L377.494 258.807L379.111 255.531Z" fill="#F5F5F5"/>
<path d="M315.005 350.614L316.622 353.89L320.238 354.415L317.621 356.966L318.239 360.567L315.005 358.867L311.771 360.567L312.389 356.966L309.772 354.415L313.388 353.89L315.005 350.614Z" fill="#F5F5F5"/>
<path d="M168.351 43.202L168.951 44.418L170.293 44.613C170.628 44.662 170.762 45.073 170.519 45.31L169.548 46.257L169.777 47.594C169.834 47.928 169.484 48.182 169.185 48.025L167.984 47.394L166.783 48.025C166.483 48.183 166.133 47.928 166.191 47.594L166.42 46.257L165.449 45.31C165.207 45.074 165.34 44.662 165.675 44.613L167.017 44.418L167.617 43.202C167.768 42.898 168.201 42.898 168.351 43.202Z" fill="#EBEBEB"/>
<path d="M3.18305 335.056L3.78305 336.272L5.12506 336.467C5.46006 336.516 5.59405 336.927 5.35105 337.164L4.38005 338.111L4.60905 339.448C4.66605 339.782 4.31605 340.036 4.01705 339.879L2.81605 339.248L1.61505 339.879C1.31505 340.036 0.965055 339.782 1.02305 339.448L1.25205 338.111L0.281054 337.164C0.0390542 336.928 0.172056 336.516 0.507056 336.467L1.84905 336.272L2.44905 335.056C2.60005 334.752 3.03305 334.752 3.18305 335.056Z" fill="#F5F5F5"/>
<path d="M30.161 30.349L30.761 31.565L32.103 31.76C32.438 31.809 32.572 32.22 32.329 32.457L31.358 33.404L31.587 34.741C31.644 35.075 31.294 35.329 30.994 35.171L29.793 34.54L28.593 35.171C28.293 35.329 27.943 35.074 28 34.741L28.229 33.404L27.258 32.457C27.016 32.221 27.149 31.809 27.484 31.76L28.826 31.565L29.426 30.349C29.578 30.045 30.011 30.045 30.161 30.349Z" fill="#EBEBEB"/>
<path d="M28.5371 271.367C28.5371 272.1 27.9431 272.694 27.2101 272.694C26.4771 272.694 25.8831 272.1 25.8831 271.367C25.8831 270.634 26.4771 270.04 27.2101 270.04C27.9421 270.04 28.5371 270.634 28.5371 271.367Z" fill="#EBEBEB"/>
<path d="M218.077 104.942C218.077 105.675 217.483 106.269 216.75 106.269C216.017 106.269 215.423 105.675 215.423 104.942C215.423 104.209 216.017 103.615 216.75 103.615C217.483 103.615 218.077 104.209 218.077 104.942Z" fill="#EBEBEB"/>
<path d="M149.113 31.448C149.113 32.181 148.519 32.775 147.786 32.775C147.053 32.775 146.459 32.181 146.459 31.448C146.459 30.715 147.053 30.121 147.786 30.121C148.519 30.121 149.113 30.716 149.113 31.448Z" fill="#F5F5F5"/>
<path d="M151.246 355.546C155.196 354.613 157.642 350.655 156.709 346.706C155.776 342.757 151.819 340.311 147.869 341.243C143.92 342.176 141.474 346.134 142.407 350.083C143.339 354.033 147.297 356.478 151.246 355.546Z" fill="#F0F0F0"/>
<path d="M147.003 344.138C145.443 344.138 143.993 344.638 142.813 345.498C142.423 346.398 142.203 347.388 142.203 348.428C142.203 352.488 145.493 355.768 149.553 355.768C150.923 355.768 152.213 355.388 153.313 354.729C153.303 354.719 153.303 354.719 153.313 354.719C153.863 353.699 154.173 352.539 154.173 351.299C154.173 347.348 150.963 344.138 147.003 344.138Z" fill="#E6E6E6"/>
<path d="M90.086 220.693H29.231V193.218L90.086 120.881H119.201V194.776H134.291V220.693H119.201V243.165H90.086V220.693ZM90.086 194.776V156.938L57.93 194.776H90.086Z" fill="#407BFF"/>
<path d="M144.708 182.556C144.708 159.702 148.821 143.71 157.051 134.578C165.28 125.447 177.813 120.881 194.655 120.881C202.746 120.881 209.39 121.88 214.584 123.875C219.778 125.871 224.016 128.468 227.296 131.666C230.576 134.865 233.16 138.227 235.046 141.754C236.933 145.28 238.45 149.395 239.598 154.098C241.839 163.065 242.96 172.415 242.96 182.147C242.96 203.962 239.269 219.929 231.888 230.043C224.506 240.159 211.794 245.215 193.751 245.215C183.635 245.215 175.461 243.601 169.229 240.376C162.995 237.151 157.882 232.421 153.892 226.188C150.992 221.76 148.737 215.704 147.126 208.022C145.513 200.34 144.708 191.852 144.708 182.556ZM177.842 182.638C177.842 197.948 179.195 208.405 181.901 214.01C184.608 219.614 188.531 222.416 193.67 222.416C197.06 222.416 199.999 221.227 202.487 218.848C204.975 216.47 206.806 212.712 207.983 207.572C209.158 202.433 209.746 194.422 209.746 183.541C209.746 167.577 208.393 156.846 205.687 151.351C202.98 145.855 198.921 143.108 193.507 143.108C187.984 143.108 183.993 145.911 181.532 151.515C179.072 157.119 177.842 167.494 177.842 182.638Z" fill="#407BFF"/>
<path d="M314.15 220.693H253.295V193.218L314.15 120.881H343.265V194.776H358.355V220.693H343.265V243.165H314.15V220.693ZM314.15 194.776V156.938L281.995 194.776H314.15Z" fill="#407BFF"/>
<g opacity="0.3">
<path d="M143.358 78.666C143.358 79.696 142.523 80.531 141.493 80.531C140.463 80.531 139.628 79.696 139.628 78.666C139.628 77.636 140.463 76.801 141.493 76.801C142.523 76.801 143.358 77.636 143.358 78.666Z" fill="#407BFF"/>
<path d="M15.372 150.5C16.1027 150.5 16.695 149.908 16.695 149.177C16.695 148.446 16.1027 147.854 15.372 147.854C14.6413 147.854 14.049 148.446 14.049 149.177C14.049 149.908 14.6413 150.5 15.372 150.5Z" fill="#407BFF"/>
<path d="M233.46 343.274C234.505 343.274 235.353 342.426 235.353 341.381C235.353 340.336 234.505 339.488 233.46 339.488C232.415 339.488 231.567 340.336 231.567 341.381C231.567 342.426 232.415 343.274 233.46 343.274Z" fill="#407BFF"/>
<path d="M278.904 266.371C279.635 266.371 280.227 265.779 280.227 265.048C280.227 264.317 279.635 263.725 278.904 263.725C278.173 263.725 277.581 264.317 277.581 265.048C277.581 265.779 278.173 266.371 278.904 266.371Z" fill="#407BFF"/>
<path d="M366.579 28.667C366.579 29.398 365.987 29.99 365.256 29.99C364.525 29.99 363.933 29.398 363.933 28.667C363.933 27.936 364.525 27.344 365.256 27.344C365.987 27.344 366.579 27.936 366.579 28.667Z" fill="#407BFF"/>
<path d="M115.16 2.01099C115.16 2.74199 114.568 3.33399 113.837 3.33399C113.106 3.33399 112.514 2.74199 112.514 2.01099C112.514 1.27999 113.106 0.687988 113.837 0.687988C114.568 0.687988 115.16 1.27999 115.16 2.01099Z" fill="#407BFF"/>
<path d="M220.101 71.314C220.832 71.314 221.424 70.7216 221.424 69.991C221.424 69.2603 220.832 68.668 220.101 68.668C219.37 68.668 218.778 69.2603 218.778 69.991C218.778 70.7216 219.37 71.314 220.101 71.314Z" fill="#407BFF"/>
</g>
<path d="M83.639 71.319C95.7396 71.319 105.549 61.5096 105.549 49.409C105.549 37.3084 95.7396 27.499 83.639 27.499C71.5384 27.499 61.729 37.3084 61.729 49.409C61.729 61.5096 71.5384 71.319 83.639 71.319Z" fill="#407BFF"/>
<path opacity="0.7" d="M83.639 71.319C95.7396 71.319 105.549 61.5096 105.549 49.409C105.549 37.3084 95.7396 27.499 83.639 27.499C71.5384 27.499 61.729 37.3084 61.729 49.409C61.729 61.5096 71.5384 71.319 83.639 71.319Z" fill="white"/>
<path opacity="0.2" d="M76.088 32.878C73.017 32.878 70.102 33.513 67.447 34.648C63.897 38.541 61.731 43.726 61.731 49.41C61.731 61.507 71.538 71.314 83.635 71.314C86.716 71.314 89.652 70.679 92.318 69.534C92.318 69.534 92.318 69.534 92.318 69.524C95.847 65.63 98.002 60.466 98.002 54.793C98.003 42.685 88.196 32.878 76.088 32.878Z" fill="#407BFF"/>
<path opacity="0.2" d="M73.91 38.671C73.91 39.777 73.0131 40.674 71.9071 40.674C70.8011 40.674 69.9041 39.777 69.9041 38.671C69.9041 37.565 70.8011 36.668 71.9071 36.668C73.0131 36.668 73.91 37.565 73.91 38.671Z" fill="#407BFF"/>
<path opacity="0.2" d="M97.47 36.668C97.47 37.774 96.573 38.671 95.467 38.671C94.361 38.671 93.464 37.774 93.464 36.668C93.464 35.562 94.361 34.665 95.467 34.665C96.573 34.666 97.47 35.562 97.47 36.668Z" fill="#407BFF"/>
<path opacity="0.2" d="M93.464 50.949C93.464 52.759 91.997 54.227 90.186 54.227C88.376 54.227 86.908 52.759 86.908 50.949C86.908 49.139 88.375 47.671 90.186 47.671C91.996 47.671 93.464 49.139 93.464 50.949Z" fill="#407BFF"/>
<path opacity="0.2" d="M83.048 60.294C83.048 62.714 81.086 64.675 78.667 64.675C76.247 64.675 74.286 62.713 74.286 60.294C74.286 57.874 76.248 55.913 78.667 55.913C81.086 55.913 83.048 57.875 83.048 60.294Z" fill="#407BFF"/>
<path d="M343.313 313.752C345.753 303.418 339.354 293.063 329.021 290.623C318.687 288.183 308.332 294.582 305.892 304.915C303.452 315.249 309.851 325.604 320.184 328.044C330.518 330.484 340.873 324.085 343.313 313.752Z" fill="#407BFF"/>
<path opacity="0.3" d="M343.313 313.752C345.753 303.418 339.354 293.063 329.021 290.623C318.687 288.183 308.332 294.582 305.892 304.915C303.452 315.249 309.851 325.604 320.184 328.044C330.518 330.484 340.873 324.085 343.313 313.752Z" fill="white"/>
<path opacity="0.4" d="M336.739 294.387C334.99 293.856 333.127 293.575 331.201 293.575C320.582 293.575 311.972 302.185 311.972 312.803C311.972 318.821 314.731 324.182 319.062 327.711C320.811 328.242 322.674 328.523 324.601 328.523C335.22 328.523 343.829 319.913 343.829 309.295C343.829 303.278 341.07 297.906 336.739 294.387Z" fill="#407BFF"/>
<path d="M306.236 314.996C285.702 324.658 301.02 332.105 329.948 321.709C356.732 312.083 366.915 299.94 343 303.703C344.234 308.811 310.688 321.882 306.236 314.996Z" fill="#407BFF"/>
<path opacity="0.2" d="M336.503 120.878C309.613 139.048 274.803 163.008 265.193 220.688H263.143C272.493 163.708 306.033 139.118 332.933 120.878H336.503Z" fill="black"/>
<path d="M197.425 301.315C180.455 301.316 163.616 293.653 155.439 281.129C150.386 273.39 144.519 257.179 161.994 235.551L163.55 236.809C151.188 252.108 148.902 267.459 157.114 280.036C167.108 295.345 190.71 303.042 210.844 297.564C231.472 291.951 243.996 274.007 245.205 248.336C249.34 160.529 295.989 133.481 330.051 113.731C351.213 101.461 366.503 92.595 363.142 73.893C362.676 71.298 361.641 69.505 359.979 68.412C355.626 65.544 347.126 67.526 337.285 69.82C317.979 74.317 291.539 80.477 275.788 53.686L277.512 52.672C292.518 78.195 317.089 72.472 336.831 67.871C347.121 65.475 356.008 63.404 361.079 66.74C363.224 68.152 364.543 70.376 365.111 73.539C368.72 93.621 352.098 103.259 331.054 115.461C297.39 134.98 251.286 161.712 247.202 248.429C245.95 275.025 232.889 293.637 211.368 299.493C206.833 300.727 202.122 301.314 197.425 301.315Z" fill="#407BFF"/>
<path opacity="0.2" d="M197.425 301.315C180.455 301.316 163.616 293.653 155.439 281.129C150.386 273.39 144.519 257.179 161.994 235.551L163.55 236.809C151.188 252.108 148.902 267.459 157.114 280.036C167.108 295.345 190.71 303.042 210.844 297.564C231.472 291.951 243.996 274.007 245.205 248.336C249.34 160.529 295.989 133.481 330.051 113.731C351.213 101.461 366.503 92.595 363.142 73.893C362.676 71.298 361.641 69.505 359.979 68.412C355.626 65.544 347.126 67.526 337.285 69.82C317.979 74.317 291.539 80.477 275.788 53.686L277.512 52.672C292.518 78.195 317.089 72.472 336.831 67.871C347.121 65.475 356.008 63.404 361.079 66.74C363.224 68.152 364.543 70.376 365.111 73.539C368.72 93.621 352.098 103.259 331.054 115.461C297.39 134.98 251.286 161.712 247.202 248.429C245.95 275.025 232.889 293.637 211.368 299.493C206.833 300.727 202.122 301.314 197.425 301.315Z" fill="white"/>
<path d="M255.164 29.997C262.019 29.872 268.746 32.131 268.746 32.131C268.746 32.131 279.711 50.902 281.048 55.198C280.587 59.438 273.433 66.389 273.433 66.389L255.164 29.997Z" fill="#407BFF"/>
<path opacity="0.3" d="M255.164 29.997C262.019 29.872 268.746 32.131 268.746 32.131C268.746 32.131 279.711 50.902 281.048 55.198C280.587 59.438 273.433 66.389 273.433 66.389L255.164 29.997Z" fill="white"/>
<path d="M287.745 121.181C283.609 115.933 279.548 110.587 276.186 104.796C275.346 103.349 274.55 101.875 273.797 100.381C273.369 99.532 272.955 98.676 272.553 97.814C272.202 97.061 271.427 95.952 271.349 95.13C270.148 82.458 274.486 73.13 270.321 62.958L253.85 69.395C253.85 69.395 255.251 87.517 258.448 98.358C260.432 105.084 264.923 110.907 269.251 116.295C270.605 117.981 271.91 119.705 273.261 121.393C274.54 122.991 275.973 124.457 277.255 126.047C279.202 128.46 279.85 130.763 278.37 133.608C278.291 133.76 278.208 133.911 278.123 134.061C277.703 134.802 279.669 135.642 280.904 134.082C282.946 131.501 282.625 131.66 284.366 129.459C285.423 128.123 286.637 126.68 287.685 125.426C288.709 124.203 288.732 122.433 287.745 121.181Z" fill="#407BFF"/>
<path opacity="0.7" d="M287.745 121.181C283.609 115.933 279.548 110.587 276.186 104.796C275.346 103.349 274.55 101.875 273.797 100.381C273.369 99.532 272.955 98.676 272.553 97.814C272.202 97.061 271.427 95.952 271.349 95.13C270.148 82.458 274.486 73.13 270.321 62.958L253.85 69.395C253.85 69.395 255.251 87.517 258.448 98.358C260.432 105.084 264.923 110.907 269.251 116.295C270.605 117.981 271.91 119.705 273.261 121.393C274.54 122.991 275.973 124.457 277.255 126.047C279.202 128.46 279.85 130.763 278.37 133.608C278.291 133.76 278.208 133.911 278.123 134.061C277.703 134.802 279.669 135.642 280.904 134.082C282.946 131.501 282.625 131.66 284.366 129.459C285.423 128.123 286.637 126.68 287.685 125.426C288.709 124.203 288.732 122.433 287.745 121.181Z" fill="white"/>
<path opacity="0.3" d="M283.718 115.966C281.513 118.631 277.03 122.088 275.054 123.489C275.484 123.968 275.91 124.457 276.337 124.946C280.405 122.289 283.621 118.842 284.841 117.442C284.464 116.957 284.091 116.461 283.718 115.966Z" fill="#407BFF"/>
<path opacity="0.3" d="M287.741 121.183C287.703 121.131 287.663 121.089 287.625 121.038C286.931 121.761 286.442 122.914 286.36 124.208C286.294 125.102 286.444 125.92 286.737 126.559C287.07 126.173 287.381 125.791 287.686 125.428C288.714 124.204 288.728 122.435 287.741 121.183Z" fill="#407BFF"/>
<path d="M251.248 41.999C249.525 44.505 247.494 46.975 244.873 49.193C243.572 50.308 242.087 51.317 240.456 52.173C239.633 52.593 238.768 52.957 237.873 53.258L237.198 53.475L236.98 53.543C236.822 53.591 236.663 53.634 236.503 53.672C236.201 53.74 235.898 53.786 235.63 53.808C234.547 53.89 233.762 53.736 233.115 53.575C231.838 53.227 230.985 52.762 230.178 52.311C229.383 51.852 228.685 51.382 228.024 50.897C226.722 49.906 225.544 48.911 224.446 47.849C222.236 45.739 220.276 43.551 218.456 41.114C217.626 40.003 217.854 38.43 218.965 37.601C219.822 36.96 220.955 36.95 221.808 37.489L221.884 37.538C224.244 39.036 226.625 40.616 228.948 42.03C230.121 42.722 231.267 43.418 232.394 43.96C232.948 44.24 233.491 44.495 233.981 44.676C234.458 44.862 234.934 44.968 235.058 44.943C235.11 44.94 235.048 44.869 234.68 44.882C234.591 44.887 234.465 44.899 234.337 44.927C234.263 44.941 234.191 44.96 234.119 44.983C234.05 45.006 234.148 44.964 234.154 44.958L234.485 44.789C234.925 44.565 235.347 44.285 235.775 44C236.631 43.421 237.446 42.686 238.278 41.88C239.924 40.245 241.508 38.21 243.18 36.094L243.202 36.065C244.914 33.897 248.06 33.528 250.228 35.24C252.304 36.879 252.721 39.848 251.248 41.999Z" fill="#407BFF"/>
<path opacity="0.7" d="M251.248 41.999C249.525 44.505 247.494 46.975 244.873 49.193C243.572 50.308 242.087 51.317 240.456 52.173C239.633 52.593 238.768 52.957 237.873 53.258L237.198 53.475L236.98 53.543C236.822 53.591 236.663 53.634 236.503 53.672C236.201 53.74 235.898 53.786 235.63 53.808C234.547 53.89 233.762 53.736 233.115 53.575C231.838 53.227 230.985 52.762 230.178 52.311C229.383 51.852 228.685 51.382 228.024 50.897C226.722 49.906 225.544 48.911 224.446 47.849C222.236 45.739 220.276 43.551 218.456 41.114C217.626 40.003 217.854 38.43 218.965 37.601C219.822 36.96 220.955 36.95 221.808 37.489L221.884 37.538C224.244 39.036 226.625 40.616 228.948 42.03C230.121 42.722 231.267 43.418 232.394 43.96C232.948 44.24 233.491 44.495 233.981 44.676C234.458 44.862 234.934 44.968 235.058 44.943C235.11 44.94 235.048 44.869 234.68 44.882C234.591 44.887 234.465 44.899 234.337 44.927C234.263 44.941 234.191 44.96 234.119 44.983C234.05 45.006 234.148 44.964 234.154 44.958L234.485 44.789C234.925 44.565 235.347 44.285 235.775 44C236.631 43.421 237.446 42.686 238.278 41.88C239.924 40.245 241.508 38.21 243.18 36.094L243.202 36.065C244.914 33.897 248.06 33.528 250.228 35.24C252.304 36.879 252.721 39.848 251.248 41.999Z" fill="white"/>
<path d="M214.691 35.464L215.863 37.43C215.863 37.43 216.758 40.046 218.549 40.53L223.403 38.958L223.16 38.55C223.162 38.551 223.165 38.551 223.167 38.551C222.545 37.604 222.612 35.778 222.831 34.259C223.049 32.74 222.261 32.686 221.679 33.064C221.343 33.282 221.105 33.975 220.832 34.722C220.593 34.393 220.337 34.076 220.048 33.788L218.565 32.311C217.925 31.674 216.9 31.645 216.225 32.245L215.023 33.313C214.411 33.857 214.272 34.76 214.691 35.464Z" fill="#407BFF"/>
<path opacity="0.7" d="M214.691 35.464L215.863 37.43C215.863 37.43 216.758 40.046 218.549 40.53L223.403 38.958L223.16 38.55C223.162 38.551 223.165 38.551 223.167 38.551C222.545 37.604 222.612 35.778 222.831 34.259C223.049 32.74 222.261 32.686 221.679 33.064C221.343 33.282 221.105 33.975 220.832 34.722C220.593 34.393 220.337 34.076 220.048 33.788L218.565 32.311C217.925 31.674 216.9 31.645 216.225 32.245L215.023 33.313C214.411 33.857 214.272 34.76 214.691 35.464Z" fill="white"/>
<path d="M260.08 28.272C255.431 29.4 249.044 32.053 244.731 34.74C243.202 35.692 242.439 37.5 242.799 39.265C244.723 48.705 249.113 61.35 253.852 69.394L275.963 60.247C276.115 56.347 270.747 43.727 265.279 31.53C264.297 29.336 262.416 27.706 260.08 28.272Z" fill="#407BFF"/>
<path opacity="0.8" d="M260.08 28.272C255.431 29.4 249.044 32.053 244.731 34.74C243.202 35.692 242.439 37.5 242.799 39.265C244.723 48.705 249.113 61.35 253.852 69.394L275.963 60.247C276.115 56.347 270.747 43.727 265.279 31.53C264.297 29.336 262.416 27.706 260.08 28.272Z" fill="white"/>
<path opacity="0.3" d="M268.702 39.262L264.314 37.791C265.296 40.358 268.847 43.612 271.344 45.523C270.521 43.517 269.629 41.42 268.702 39.262Z" fill="#407BFF"/>
<path d="M258.623 18.368C256.798 14.887 252.849 13.135 248.107 13.531C244.109 13.865 240.563 17.947 240.984 20.153C241.404 22.359 244.769 23.293 245.378 24.059L242.605 26.069C241.225 27.07 240.955 29.016 242.009 30.356C243.176 31.838 244.712 33.386 245.607 34.479C253.271 34.28 258.939 31.356 260.981 28.543C260.247 24.964 260.438 21.83 258.623 18.368Z" fill="#407BFF"/>
<path opacity="0.8" d="M258.623 18.368C256.798 14.887 252.849 13.135 248.107 13.531C244.109 13.865 240.563 17.947 240.984 20.153C241.404 22.359 244.769 23.293 245.378 24.059L242.605 26.069C241.225 27.07 240.955 29.016 242.009 30.356C243.176 31.838 244.712 33.386 245.607 34.479C253.271 34.28 258.939 31.356 260.981 28.543C260.247 24.964 260.438 21.83 258.623 18.368Z" fill="white"/>
<path d="M254.867 20.524C256.389 24.42 254.466 28.812 250.57 30.334C246.674 31.856 242.282 29.933 240.76 26.037C239.238 22.142 241.161 17.749 245.057 16.227C248.952 14.705 253.344 16.629 254.867 20.524Z" fill="#263238"/>
<path d="M319.794 110.644C319.683 107.355 319.541 107.684 319.445 104.88C319.387 103.177 319.38 101.291 319.369 99.657C319.358 98.062 318.231 96.697 316.668 96.38C315.343 96.111 314.014 95.855 312.691 95.573C310.965 95.205 309.259 94.809 307.564 94.317C306.25 93.935 304.947 93.514 303.659 93.05C302.279 92.553 300.918 92.008 299.57 91.43C297.994 90.754 296.437 90.034 294.892 89.292C293.167 88.464 291.455 87.608 289.749 86.741C283.168 75.846 283.026 68.667 275.963 60.246L260.803 67.104C260.803 67.104 271.942 86.869 279.528 95.249C283.895 100.072 290.746 102.246 296.856 103.824C301.264 104.962 305.734 105.833 310.209 106.655C311.949 106.974 313.84 107.098 315.337 108.137C316.516 108.955 317.126 110.232 317.474 111.589C317.545 111.866 317.605 112.146 317.659 112.428C317.819 113.265 319.862 112.633 319.794 110.644Z" fill="#407BFF"/>
<path opacity="0.8" d="M319.794 110.644C319.683 107.355 319.541 107.684 319.445 104.88C319.387 103.177 319.38 101.291 319.369 99.657C319.358 98.062 318.231 96.697 316.668 96.38C315.343 96.111 314.014 95.855 312.691 95.573C310.965 95.205 309.259 94.809 307.564 94.317C306.25 93.935 304.947 93.514 303.659 93.05C302.279 92.553 300.918 92.008 299.57 91.43C297.994 90.754 296.437 90.034 294.892 89.292C293.167 88.464 291.455 87.608 289.749 86.741C283.168 75.846 283.026 68.667 275.963 60.246L260.803 67.104C260.803 67.104 271.942 86.869 279.528 95.249C283.895 100.072 290.746 102.246 296.856 103.824C301.264 104.962 305.734 105.833 310.209 106.655C311.949 106.974 313.84 107.098 315.337 108.137C316.516 108.955 317.126 110.232 317.474 111.589C317.545 111.866 317.605 112.146 317.659 112.428C317.819 113.265 319.862 112.633 319.794 110.644Z" fill="white"/>
<path opacity="0.3" d="M312.106 95.448C311.509 95.317 310.903 95.183 310.3 95.04C310.347 98.493 308.728 104.457 308.133 106.264C308.764 106.383 309.404 106.505 310.035 106.625C311.79 101.88 312.066 96.857 312.106 95.448Z" fill="#407BFF"/>
<path opacity="0.3" d="M319.367 99.658C319.356 98.059 318.233 96.697 316.673 96.377C316.359 96.313 316.035 96.245 315.719 96.191C315.785 97.131 316.369 98.222 317.347 99.088C317.988 99.666 318.713 100.05 319.379 100.231C319.369 100.032 319.368 99.845 319.367 99.658Z" fill="#407BFF"/>
<path d="M253.452 20.588C253.857 22.104 252.16 23.698 250.802 22.387C249.7 21.323 248.04 19.541 246.685 18.694C245.293 17.823 247.149 16.307 249.335 16.895C251.376 17.445 253.047 19.071 253.452 20.588Z" fill="white"/>
<path d="M253.567 68.908C252.862 69.168 254.15 70.364 254.15 70.364C254.15 70.364 268.12 65.577 276.645 60.648C276.717 59.617 275.967 59.07 275.967 59.07C275.967 59.07 265.595 64.474 253.567 68.908Z" fill="#407BFF"/>
<path opacity="0.5" d="M253.567 68.908C252.862 69.168 254.15 70.364 254.15 70.364C254.15 70.364 268.12 65.577 276.645 60.648C276.717 59.617 275.967 59.07 275.967 59.07C275.967 59.07 265.595 64.474 253.567 68.908Z" fill="white"/>
<path d="M263.866 27.611C266.624 29.004 269.22 30.479 271.813 32.112C273.104 32.925 274.389 33.76 275.655 34.661C276.931 35.544 278.19 36.475 279.453 37.523L279.927 37.911L280.518 38.444C280.938 38.814 281.246 39.155 281.555 39.495C281.879 39.846 282.146 40.184 282.409 40.521C282.682 40.86 282.941 41.197 283.174 41.529C284.163 42.857 284.969 44.208 285.76 45.548C287.297 48.265 288.628 50.978 289.726 53.897C290.216 55.199 289.558 56.651 288.255 57.142C287.277 57.51 286.213 57.23 285.537 56.516L285.488 56.462C283.479 54.334 281.552 52.089 279.613 50.004C277.716 47.925 275.701 45.791 274.076 44.863C271.806 43.447 269.278 42.041 266.766 40.656L259.203 36.458L259.184 36.448C256.769 35.108 255.898 32.064 257.238 29.649C258.547 27.294 261.483 26.411 263.866 27.611Z" fill="#407BFF"/>
<path opacity="0.8" d="M263.866 27.611C266.624 29.004 269.22 30.479 271.813 32.112C273.104 32.925 274.389 33.76 275.655 34.661C276.931 35.544 278.19 36.475 279.453 37.523L279.927 37.911L280.518 38.444C280.938 38.814 281.246 39.155 281.555 39.495C281.879 39.846 282.146 40.184 282.409 40.521C282.682 40.86 282.941 41.197 283.174 41.529C284.163 42.857 284.969 44.208 285.76 45.548C287.297 48.265 288.628 50.978 289.726 53.897C290.216 55.199 289.558 56.651 288.255 57.142C287.277 57.51 286.213 57.23 285.537 56.516L285.488 56.462C283.479 54.334 281.552 52.089 279.613 50.004C277.716 47.925 275.701 45.791 274.076 44.863C271.806 43.447 269.278 42.041 266.766 40.656L259.203 36.458L259.184 36.448C256.769 35.108 255.898 32.064 257.238 29.649C258.547 27.294 261.483 26.411 263.866 27.611Z" fill="white"/>
<path d="M292.139 58.786L291.29 56.661C291.29 56.661 290.816 53.937 289.123 53.178L284.083 53.97L284.259 54.411C284.257 54.41 284.255 54.409 284.252 54.409C284.718 55.441 284.365 57.235 283.911 58.7C283.457 60.166 284.227 60.343 284.861 60.061C285.227 59.898 285.571 59.251 285.957 58.556C286.142 58.919 286.345 59.272 286.585 59.601L287.818 61.292C288.35 62.021 289.358 62.211 290.119 61.724L291.473 60.857C292.164 60.416 292.444 59.547 292.139 58.786Z" fill="#407BFF"/>
<path opacity="0.8" d="M292.139 58.786L291.29 56.661C291.29 56.661 290.816 53.937 289.123 53.178L284.083 53.97L284.259 54.411C284.257 54.41 284.255 54.409 284.252 54.409C284.718 55.441 284.365 57.235 283.911 58.7C283.457 60.166 284.227 60.343 284.861 60.061C285.227 59.898 285.571 59.251 285.957 58.556C286.142 58.919 286.345 59.272 286.585 59.601L287.818 61.292C288.35 62.021 289.358 62.211 290.119 61.724L291.473 60.857C292.164 60.416 292.444 59.547 292.139 58.786Z" fill="white"/>
<path opacity="0.3" d="M259.642 39.105L258.423 39.204L250.938 57.288C251.378 57.318 251.782 57.281 252.156 57.189C252.156 57.189 261.916 53.552 264.87 52.219C262.882 48.099 259.642 39.105 259.642 39.105Z" fill="#407BFF"/>
<path d="M245.974 43.85C246.391 47.107 248.833 54.029 250.939 57.288C254.594 56.028 260.699 53.651 263.653 52.318C261.664 48.199 259.57 42.523 258.424 39.205C255.275 39.414 248.412 41.999 245.974 43.85Z" fill="white"/>
<path opacity="0.3" d="M253.406 47.761C252.998 49.126 251.56 49.901 250.196 49.492C248.832 49.083 248.056 47.646 248.465 46.282C248.874 44.917 250.311 44.142 251.675 44.551C253.039 44.959 253.814 46.396 253.406 47.761Z" fill="#407BFF"/>
<path opacity="0.6" d="M255.319 44.316C255.185 44.763 254.714 45.017 254.267 44.883C253.82 44.749 253.566 44.278 253.699 43.831C253.833 43.384 254.304 43.13 254.751 43.264C255.199 43.397 255.453 43.868 255.319 44.316Z" fill="#407BFF"/>
<path opacity="0.6" d="M257.551 43.447C257.417 43.894 256.946 44.148 256.499 44.014C256.052 43.88 255.798 43.409 255.932 42.962C256.066 42.515 256.537 42.261 256.984 42.395C257.431 42.529 257.685 43 257.551 43.447Z" fill="#407BFF"/>
<path opacity="0.5" d="M260.697 51.235L251.45 54.889L250.891 53.071L260.138 49.416L260.697 51.235Z" fill="#407BFF"/>
<path opacity="0.2" d="M209.663 190.218C209.463 197.758 208.903 203.548 207.983 207.568C206.803 212.708 204.973 216.468 202.483 218.848C200.003 221.228 197.063 222.418 193.673 222.418C188.533 222.418 184.603 219.618 181.903 214.008C181.463 213.098 181.063 212.058 180.693 210.898C174.983 215.808 169.663 221.168 164.773 226.928L159.463 233.188C162.333 236.098 165.593 238.488 169.233 240.378C175.463 243.598 183.633 245.218 193.753 245.218C195.533 245.218 197.253 245.168 198.923 245.068C205.043 236.008 210.113 226.268 214.023 216.048L228.873 177.328L209.663 190.218Z" fill="black"/>
<path d="M75.7941 243.006C81.3911 248.603 93.2961 260.508 93.2961 260.508L142.307 214.341C125.441 207.929 92.5651 226.236 75.7941 243.006Z" fill="#263238"/>
<path d="M136.828 304.04C131.231 298.443 119.326 286.538 119.326 286.538L165.493 237.528C171.905 254.393 153.599 287.269 136.828 304.04Z" fill="#263238"/>
<path d="M203.805 193.747L222.896 156.938L186.087 176.029C174.261 182.163 163.343 189.906 153.643 199.037L90.8961 258.107L121.726 288.937L180.796 226.19C189.928 216.491 197.671 205.573 203.805 193.747Z" fill="#407BFF"/>
<path opacity="0.6" d="M203.805 193.747L222.896 156.938L186.087 176.029C174.261 182.163 163.343 189.906 153.643 199.037L90.8961 258.107L121.726 288.937L180.796 226.19C189.928 216.491 197.671 205.573 203.805 193.747Z" fill="white"/>
<path d="M164.604 228.13C171.728 228.13 177.503 222.355 177.503 215.231C177.503 208.107 171.728 202.332 164.604 202.332C157.48 202.332 151.705 208.107 151.705 215.231C151.705 222.355 157.48 228.13 164.604 228.13Z" fill="white"/>
<path d="M164.603 223.516C169.179 223.516 172.888 219.807 172.888 215.231C172.888 210.655 169.179 206.946 164.603 206.946C160.027 206.946 156.318 210.655 156.318 215.231C156.318 219.807 160.027 223.516 164.603 223.516Z" fill="#407BFF"/>
<path opacity="0.3" d="M132.152 277.864L101.97 247.683L126.681 224.419L155.415 253.153L132.152 277.864Z" fill="#407BFF"/>
<path d="M82.6261 270.664C60.0211 272.503 52.5331 286.97 49.9791 306.203C48.6771 316.012 48.0991 325.936 39.8621 331.678C37.5761 333.272 38.7111 336.825 41.4971 336.738C71.8361 335.791 85.9871 320.934 87.7641 314.713C87.1521 318.646 86.2601 321.748 85.2721 324.188C84.2561 326.695 87.0091 329.015 89.3011 327.579C97.8181 322.243 108.5 312.424 109.21 296.501C102.913 287.651 82.6261 270.664 82.6261 270.664Z" fill="#407BFF"/>
<path opacity="0.2" d="M82.6261 270.664C60.0211 272.503 52.5331 286.97 49.9791 306.203C48.6771 316.012 48.0991 325.936 39.8621 331.678C37.5761 333.272 38.7111 336.825 41.4971 336.738C71.8361 335.791 85.9871 320.934 87.7641 314.713C87.1521 318.646 86.2601 321.748 85.2721 324.188C84.2561 326.695 87.0091 329.015 89.3011 327.579C97.8181 322.243 108.5 312.424 109.21 296.501C102.913 287.651 82.6261 270.664 82.6261 270.664Z" fill="white"/>
<path d="M112.682 303.348L76.4861 267.152L95.7691 262.981L116.854 284.065L112.682 303.348Z" fill="#407BFF"/>
</svg>
