<svg width="120" height="28" viewBox="0 0 120 28" fill="none" xmlns="http://www.w3.org/2000/svg">
<path d="M111.941 23.1097C111.692 26.5357 108.625 28 105.034 28C102.437 28 100.364 27.1159 98.1542 25.541C98.0437 25.4305 98.0437 25.2648 98.1542 25.099L99.7566 22.5572C99.8671 22.3914 100.033 22.3638 100.199 22.4466C101.414 23.3584 103.293 24.2701 104.896 24.353C106.305 24.4083 107.41 24.1596 107.576 22.9716C107.686 22.0875 107.244 21.4796 106.084 21.2586C104.923 21.0376 104.039 20.8718 102.216 20.4021C99.8119 19.7667 98.541 18.109 98.7344 15.5671C98.983 12.528 101.552 10.8979 104.757 10.8979C107.41 10.8979 109.344 11.5334 111.416 13.0253C111.526 13.1358 111.499 13.274 111.416 13.4121L109.786 15.8158C109.675 15.9539 109.482 15.9816 109.344 15.8987C108.156 15.0422 106.691 14.4896 105.144 14.4896C103.846 14.4896 103.265 14.8764 103.21 15.7329C103.155 16.5341 103.735 17.0315 104.84 17.2525C105.89 17.4735 106.609 17.584 108.432 18.0537C110.642 18.6063 112.134 20.264 111.941 23.1097Z" fill="white"/>
<path d="M86.7423 4.48811V17.584L92.3786 11.3952C92.4891 11.2295 92.572 11.0913 92.8759 11.0913H97.0754C97.407 11.0913 97.5175 11.3124 97.3793 11.5334L91.3839 18.1919L97.5727 27.3645C97.628 27.5027 97.6004 27.8066 97.2688 27.8066H93.014C92.7101 27.8066 92.5996 27.6961 92.5167 27.5027L88.5382 21.3415L86.7423 23.3308V27.5303C86.7423 27.7513 86.6318 27.8066 86.4661 27.8066H82.5152C82.3218 27.8066 82.2389 27.7237 82.2389 27.5303V4.48811C82.2389 4.29471 82.3218 4.21182 82.5152 4.21182H86.4661C86.6318 4.21182 86.7423 4.26708 86.7423 4.48811Z" fill="white"/>
<path d="M78.6457 4.54337V27.4751C78.6457 27.6961 78.48 27.8066 78.3142 27.8066H74.2252C74.1147 27.8066 73.9213 27.7513 73.9213 27.4751V4.54337C73.9213 4.26708 74.1147 4.21182 74.2252 4.21182H78.3142C78.48 4.21182 78.6457 4.32234 78.6457 4.54337Z" fill="white"/>
<path d="M57.1205 13.5226C58.8611 11.6992 61.4029 10.9256 63.8066 10.9256C69.7191 10.9256 70.8795 14.5725 70.8795 17.8603V27.5303C70.8795 27.7514 70.769 27.8066 70.6032 27.8066H66.7076C66.5142 27.8066 66.4313 27.7237 66.4313 27.5303V26.2594C65.4919 27.254 63.9171 28 62.0107 28C59.5518 28 56.2087 26.7567 56.2087 22.8887C56.2087 18.109 61.2924 17.3078 66.2379 17.2525V17.0038C66.2379 15.3461 65.188 14.6278 63.5027 14.6278C62.066 14.6278 60.7398 15.429 59.6071 16.3684C59.4965 16.4513 59.3031 16.4513 59.165 16.3131L57.1481 13.9094C57.0652 13.7713 57.0376 13.6332 57.1205 13.5226ZM66.2379 20.9824V20.5403H65.9616C63.6961 20.5403 60.8227 20.6508 60.8227 22.8335C60.8227 24.0491 61.7621 24.2702 62.9501 24.2702C65.3538 24.2702 66.2379 22.9164 66.2379 20.9824Z" fill="white"/>
<path d="M51.2204 8.66005V27.4751C51.2204 27.6961 51.0547 27.8066 50.8889 27.8066H46.8275C46.717 27.8066 46.5236 27.7514 46.5236 27.4751V8.66005H40.7216C40.6111 8.66005 40.4453 8.60479 40.4453 8.32851V5.06834C40.4453 4.95782 40.5282 4.79205 40.7492 4.79205H56.7185C56.9396 4.79205 57.0224 4.95782 57.0224 5.06834V8.32851C57.0224 8.60479 56.8567 8.66005 56.7462 8.66005H51.2204Z" fill="white"/>
<path d="M30.6246 28H29.7405C24.795 28 21.0375 25.1266 21.0375 18.9931V12.9148C21.0375 7.83115 24.491 4.57098 29.6852 4.57098H30.6798C35.9016 4.57098 39.3276 8.10744 39.3276 13.1911V18.9931C39.3276 25.1266 35.5701 28 30.6246 28ZM29.9062 24.1044H30.4588C32.4757 24.1044 34.6031 22.7229 34.6031 19.518V13.2187C34.6031 10.0138 32.5586 8.46661 30.4312 8.46661H29.9339C27.8065 8.46661 25.762 10.0138 25.762 13.2187V19.518C25.762 22.7229 27.8894 24.1044 29.9062 24.1044Z" fill="#307ACF"/>
<path d="M10.6096 22.0599L15.3893 5.09597C15.4722 4.90257 15.5827 4.79205 15.8866 4.79205H19.727C20.0585 4.79205 20.0861 5.09597 20.0309 5.23411L13.0685 27.4475C13.0132 27.6685 12.9027 27.8066 12.6541 27.8066H8.39927C8.15061 27.8066 8.0401 27.6685 7.98484 27.4475L1.02245 5.23411C0.967191 5.09597 0.99482 4.79205 1.32636 4.79205H5.16673C5.47064 4.79205 5.58116 4.90257 5.66404 5.09597L10.6096 22.0599Z" fill="#307ACF"/>
<mask id="mask0_9_667" style="mask-type:luminance" maskUnits="userSpaceOnUse" x="108" y="0" width="12" height="11">
<path d="M118.159 3.56144C117.855 3.64391 117.675 3.95715 117.758 4.26109C117.855 4.62115 117.905 4.99496 117.905 5.37217C117.905 6.50251 117.465 7.5652 116.665 8.36447C115.866 9.16379 114.803 9.60389 113.673 9.60389C112.543 9.60389 111.48 9.16379 110.681 8.36447C109.882 7.5652 109.441 6.50251 109.441 5.37217C109.441 4.24183 109.882 3.17915 110.681 2.37989C111.48 1.58055 112.543 1.14045 113.673 1.14045C114.239 1.14045 114.788 1.24996 115.304 1.4661C115.595 1.58756 115.929 1.45048 116.05 1.15999C116.172 0.869385 116.035 0.535348 115.744 0.41389C115.087 0.13926 114.391 -9.23086e-06 113.673 -9.23086e-06C112.948 -9.23086e-06 112.245 0.142018 111.582 0.422393C110.942 0.693002 110.368 1.08024 109.874 1.57343C109.381 2.06661 108.994 2.64111 108.723 3.28089C108.443 3.94358 108.301 4.64718 108.301 5.37217C108.301 6.09717 108.443 6.80078 108.723 7.46345C108.994 8.10324 109.381 8.67773 109.874 9.17092C110.368 9.6641 110.942 10.0513 111.582 10.322C112.245 10.6022 112.948 10.7444 113.673 10.7444C114.398 10.7444 115.102 10.6022 115.764 10.322C116.404 10.0513 116.979 9.6641 117.472 9.17092C117.965 8.67773 118.352 8.10324 118.623 7.46345C118.903 6.80078 119.045 6.09717 119.045 5.37217C119.045 4.89413 118.982 4.41985 118.858 3.96248C118.776 3.65855 118.463 3.47902 118.159 3.56144Z" fill="white"/>
</mask>
<g mask="url(#mask0_9_667)">
<path d="M118.159 3.56144C117.855 3.64391 117.675 3.95715 117.758 4.26109C117.855 4.62115 117.905 4.99496 117.905 5.37217C117.905 6.50251 117.465 7.5652 116.665 8.36447C115.866 9.16379 114.803 9.60389 113.673 9.60389C112.543 9.60389 111.48 9.16379 110.681 8.36447C109.882 7.5652 109.441 6.50251 109.441 5.37217C109.441 4.24183 109.882 3.17915 110.681 2.37989C111.48 1.58055 112.543 1.14045 113.673 1.14045C114.239 1.14045 114.788 1.24996 115.304 1.4661C115.595 1.58756 115.929 1.45048 116.05 1.15999C116.172 0.869385 116.035 0.535348 115.744 0.41389C115.087 0.13926 114.391 -9.23086e-06 113.673 -9.23086e-06C112.948 -9.23086e-06 112.245 0.142018 111.582 0.422393C110.942 0.693002 110.368 1.08024 109.874 1.57343C109.381 2.06661 108.994 2.64111 108.723 3.28089C108.443 3.94358 108.301 4.64718 108.301 5.37217C108.301 6.09717 108.443 6.80078 108.723 7.46345C108.994 8.10324 109.381 8.67773 109.874 9.17092C110.368 9.6641 110.942 10.0513 111.582 10.322C112.245 10.6022 112.948 10.7444 113.673 10.7444C114.398 10.7444 115.102 10.6022 115.764 10.322C116.404 10.0513 116.979 9.6641 117.472 9.17092C117.965 8.67773 118.352 8.10324 118.623 7.46345C118.903 6.80078 119.045 6.09717 119.045 5.37217C119.045 4.89413 118.982 4.41985 118.858 3.96248C118.776 3.65855 118.463 3.47902 118.159 3.56144Z" fill="#307ACF"/>
</g>
<mask id="mask1_9_667" style="mask-type:luminance" maskUnits="userSpaceOnUse" x="110" y="1" width="9" height="7">
<path d="M111.893 4.71029C111.67 4.48759 111.309 4.4876 111.086 4.71029C110.863 4.93297 110.863 5.29403 111.086 5.51672L112.991 7.42136C113.098 7.52859 113.243 7.58838 113.394 7.58838C113.404 7.58838 113.415 7.58809 113.426 7.58749C113.588 7.5785 113.738 7.50095 113.839 7.37424L117.91 2.28265C118.107 2.03663 118.067 1.67777 117.821 1.48116C117.575 1.28444 117.216 1.32443 117.019 1.57045L113.347 6.1643L111.893 4.71029Z" fill="white"/>
</mask>
<g mask="url(#mask1_9_667)">
<path d="M111.893 4.71029C111.67 4.48759 111.309 4.4876 111.086 4.71029C110.863 4.93297 110.863 5.29403 111.086 5.51672L112.991 7.42136C113.098 7.52859 113.243 7.58838 113.394 7.58838C113.404 7.58838 113.415 7.58809 113.426 7.58749C113.588 7.5785 113.738 7.50095 113.839 7.37424L117.91 2.28265C118.107 2.03663 118.067 1.67777 117.821 1.48116C117.575 1.28444 117.216 1.32443 117.019 1.57045L113.347 6.1643L111.893 4.71029Z" fill="#307ACF"/>
</g>
</svg>
